<svg width="47" height="46" xmlns="http://www.w3.org/2000/svg" xml:space="preserve" version="1.1">

 <g>
  <title>Layer 1</title>
  <g stroke="null" id="svg_1">
   <path stroke="null" id="svg_2" d="m1.48828,3.34372c-0.80138,0 -1.48828,-0.76186 -1.48828,-1.69302c0,-0.88884 0.6869,-1.6507 1.48828,-1.6507l3.89243,0c0.03816,0 0.11448,0 0.15264,0c1.3738,0.04233 2.59496,0.3386 3.62531,1.05814c1.14483,0.80419 1.98438,2.03163 2.44231,3.85163c0,0.04233 0,0.08465 0.03816,0.12698l0.38161,1.69302l33.39097,0c0.83954,0 1.48828,0.76186 1.48828,1.6507c0,0.1693 -0.03816,0.3386 -0.07632,0.50791l-3.89243,17.39581c-0.15264,0.76186 -0.76322,1.26977 -1.45012,1.26977l0,0l-24.42311,0c0.53426,2.20093 1.06851,3.38605 1.79357,3.93628c0.87771,0.63488 2.40415,0.67721 4.96094,0.63488l0.03816,0l0,0l17.24882,0c0.83954,0 1.48828,0.76186 1.48828,1.6507c0,0.93116 -0.6869,1.6507 -1.48828,1.6507l-17.24882,0l0,0c-3.16737,0.04233 -5.11359,-0.04233 -6.67819,-1.18512c-1.60277,-1.18512 -2.44231,-3.21674 -3.28186,-6.89907l0,0l-5.11359,-21.45907c0,-0.04233 0,-0.04233 -0.03816,-0.08465c-0.22897,-0.93116 -0.61058,-1.56605 -1.14483,-1.90465c-0.53426,-0.38093 -1.25932,-0.55023 -2.09886,-0.55023c-0.03816,0 -0.07632,0 -0.11448,0l-3.89243,0l0,0zm35.14638,34.02977c2.02254,0 3.66347,1.82 3.66347,4.06326c0,2.24326 -1.64093,4.06326 -3.66347,4.06326c-2.02254,0 -3.66347,-1.82 -3.66347,-4.06326c0,-2.24326 1.64093,-4.06326 3.66347,-4.06326l0,0zm-16.06583,0c2.02254,0 3.66347,1.82 3.66347,4.06326c0,2.24326 -1.64093,4.06326 -3.66347,4.06326c-2.02254,0 -3.66347,-1.82 -3.66347,-4.06326c0,-2.24326 1.64093,-4.06326 3.66347,-4.06326l0,0zm-7.70854,-27.34233l3.39634,14.17907l24.07966,0l3.16737,-14.17907l-30.64337,0l0,0z"/>
  </g>
 </g>
</svg>
